# xmcd
#
# Track frame offsets:
#       150
#       24475
#       43963
#       66317
#       87584
#       103738
#       124489
#       142096
#       160253
#       183561
#       204563
#       223760
#       240592
#       259776
#       274814
#
# Disc length: 3973 seconds
#
# Revision: 4
# Processed by: cddbd v1.4PL0 Copyright (c) Steve Scherf et al.
# Submitted via: CD-DA_X-Tractor v0.23
#
DISCID=f10f830f
DTITLE=Tim McGraw - Tim McGraw And The Dance Hall Doctors
DYEAR=2002
DGENRE=Country
TTITLE0=Comfort Me
TTITLE1=Tickin' Away
TTITLE2=Home
TTITLE3=Red Ragtop
TTITLE4=That's Why God Made Mexico
TTITLE5=Watch The Wind Blow By
TTITLE6=Illegal
TTITLE7=Sleep Tonight
TTITLE8=I Know How To Love You Well
TTITLE9=Sing Me Home
TTITLE10=She's My Kind Of Rain
TTITLE11=Who Are They
TTITLE12=Real Good Man
TTITLE13=All We Ever Find
TTITLE14=Tiny Dancer
EXTD=
EXTT0=
EXTT1=
EXTT2=
EXTT3=
EXTT4=
EXTT5=
EXTT6=
EXTT7=
EXTT8=
EXTT9=
EXTT10=
EXTT11=
EXTT12=
EXTT13=
EXTT14=
PLAYORDER=
